<?xml version="1.0" encoding="UTF-8" standalone="no"?>
<!-- Created with Inkscape (http://www.inkscape.org/) -->
<svg xmlns:dc="http://purl.org/dc/elements/1.1/" xmlns:cc="http://creativecommons.org/ns#" xmlns:rdf="http://www.w3.org/1999/02/22-rdf-syntax-ns#" xmlns:svg="http://www.w3.org/2000/svg" xmlns="http://www.w3.org/2000/svg" xmlns:sodipodi="http://sodipodi.sourceforge.net/DTD/sodipodi-0.dtd" xmlns:inkscape="http://www.inkscape.org/namespaces/inkscape" id="svg2" sodipodi:docname="remix.svg" viewBox="0 0 255.08317 353.08438" version="1.1" inkscape:version="0.48.3.1 r9886" width="100%" height="100%">
    <defs id="defs37"/>
    <sodipodi:namedview id="base" bordercolor="#666666" inkscape:pageshadow="2" inkscape:window-y="24" fit-margin-left="2" pagecolor="#ffffff" inkscape:window-height="1124" inkscape:window-maximized="1" inkscape:zoom="0.8" inkscape:window-x="0" showgrid="false" borderopacity="1.0" inkscape:current-layer="layer1" inkscape:cx="-172.57856" inkscape:cy="112.06351" fit-margin-top="2" fit-margin-right="2" fit-margin-bottom="2" inkscape:window-width="1920" inkscape:pageopacity="0.0" inkscape:document-units="px"/>
    <g id="layer1" inkscape:label="Layer 1" inkscape:groupmode="layer" transform="translate(-389.65582,289.74125)">
        <path style="fill:#bfecec;fill-opacity:1;stroke:#232323;stroke-width:3;stroke-miterlimit:4;stroke-opacity:1;stroke-dasharray:none" d="m 517.48899,-286.24125 c -68.5575,0 -123.75,52.10583 -123.75,116.84375 l 0,224.156252 247.5,0 0,-224.156252 c 0,-64.73792 -55.1925,-116.84375 -123.75,-116.84375 z" id="rect6871" inkscape:connector-curvature="0"/>
        <g id="g4421" transform="matrix(1.4959891,0,0,1.0734769,-38.006594,-135.12239)"/>
        <rect style="fill:#727272;fill-opacity:1;stroke:#232323;stroke-width:2.66632175;stroke-linecap:round;stroke-linejoin:round;stroke-miterlimit:4;stroke-opacity:1;stroke-dasharray:none;stroke-dashoffset:0" id="rect6873" width="247.5" height="37.610767" x="392.98898" y="22.399202" rx="74.702744" ry="0"/>
        <path sodipodi:type="arc" style="fill:#5fff00;fill-opacity:1;fill-rule:nonzero;stroke:#232323;stroke-width:5.72267199;stroke-linecap:round;stroke-linejoin:round;stroke-miterlimit:4;stroke-opacity:1;stroke-dasharray:none;stroke-dashoffset:0" id="path6894" sodipodi:cx="126.25" sodipodi:cy="-454.405" sodipodi:rx="22.5" sodipodi:ry="20.625" d="m 148.75,-454.405 c 0,11.39087 -10.07359,20.625 -22.5,20.625 -12.42641,0 -22.5,-9.23413 -22.5,-20.625 0,-11.39087 10.07359,-20.625 22.5,-20.625 12.42641,0 22.5,9.23413 22.5,20.625 z" transform="matrix(0.50757576,0,0,0.54143203,528.53255,285.70645)"/>
        <path transform="matrix(0.50757576,0,0,0.54143203,498.078,285.70645)" d="m 148.75,-454.405 c 0,11.39087 -10.07359,20.625 -22.5,20.625 -12.42641,0 -22.5,-9.23413 -22.5,-20.625 0,-11.39087 10.07359,-20.625 22.5,-20.625 12.42641,0 22.5,9.23413 22.5,20.625 z" sodipodi:ry="20.625" sodipodi:rx="22.5" sodipodi:cy="-454.405" sodipodi:cx="126.25" id="use6896" style="fill:#00ffb1;fill-opacity:1;fill-rule:nonzero;stroke:#232323;stroke-width:5.72267199;stroke-linecap:round;stroke-linejoin:round;stroke-miterlimit:4;stroke-opacity:1;stroke-dasharray:none;stroke-dashoffset:0" sodipodi:type="arc"/>
        <path sodipodi:type="arc" style="fill:#ccff00;fill-opacity:1;fill-rule:nonzero;stroke:#232323;stroke-width:5.72267199;stroke-linecap:round;stroke-linejoin:round;stroke-miterlimit:4;stroke-opacity:1;stroke-dasharray:none;stroke-dashoffset:0" id="use6900" sodipodi:cx="126.25" sodipodi:cy="-454.405" sodipodi:rx="22.5" sodipodi:ry="20.625" d="m 148.75,-454.405 c 0,11.39087 -10.07359,20.625 -22.5,20.625 -12.42641,0 -22.5,-9.23413 -22.5,-20.625 0,-11.39087 10.07359,-20.625 22.5,-20.625 12.42641,0 22.5,9.23413 22.5,20.625 z" transform="matrix(0.50757576,0,0,0.54143203,558.98709,285.70645)"/>
        <g id="g6946" style="fill:#a64a63;fill-opacity:1" transform="matrix(0.92253767,0,0,0.92253767,120.01716,-437.91262)">
            <path inkscape:connector-curvature="0" id="path4483" d="m 485.09375,347.5 c -12.37465,2.34559 -24.75213,4.67633 -37.125,7.03125 5.59505,16.83314 12.10784,33.39231 16.875,50.4375 -0.31879,12.62093 -8.01599,26.68557 -0.21875,38.5 3.53817,7.64059 13.93184,13.56207 21.3125,7.40625 4.66392,-4.11482 0.004,-10.19597 -3.75,-12.96875 -4.86939,-5.23322 -5.88639,-12.78908 -2.6875,-19.1875 2.82613,-7.3547 3.23559,-15.39536 1.71875,-23.03125 0.35708,-16.43699 3.83023,-32.5689 6.78125,-48.71875 -0.96875,0.17708 -1.9375,0.35417 -2.90625,0.53125 z" style="fill:#a64a63;fill-opacity:1;stroke:none"/>
            <path inkscape:connector-curvature="0" id="path4485" d="m 421.59375,369.78125 c 5.27734,5.19309 8.25575,12.71981 6.375,20.0625 -0.82832,9.34639 5.69065,17.28954 5.78125,26.34375 -0.37477,6.6233 -6.37234,10.42085 -8.9375,15.9375 -2.12647,7.10478 7.88939,10.38742 13.125,7.6875 10.89615,-5.18404 14.83322,-19.25828 11.3125,-30.28125 -1.90039,-8.95331 -6.92527,-18.58233 -0.875,-27.03125 2.62558,-5.12253 5.95551,-9.47599 9.34375,-14.0625 -13.16585,-0.77425 -26.3329,-1.52855 -39.5,-2.28125 1.125,1.20833 2.25,2.41667 3.375,3.625 z" style="fill:#a64a63;fill-opacity:1;stroke:none"/>
            <path inkscape:connector-curvature="0" id="path4441" d="m 368.1875,349.84375 c 2.64949,16.16588 6.78553,32.49287 5.9375,48.875 -3.01328,10.15914 3.44005,19.82547 3.875,29.625 -0.44519,6.95541 -6.93995,10.54325 -9.875,16.0625 -2.53112,6.98392 7.35043,10.7943 12.6875,8.375 11.16994,-4.58218 15.81066,-18.38838 12.9375,-29.65625 -1.53463,-8.77969 -5.32633,-18.1276 -0.55224,-26.52143 4.78141,-14.07498 9.52854,-28.04097 14.45849,-42.07232 -13.34266,-2.5264 -26.68121,-5.0755 -40.03125,-7.5625 0.1875,0.95833 0.375,1.91667 0.5625,2.875 z" style="fill:#a64a63;fill-opacity:1;stroke:none"/>
            <path inkscape:connector-curvature="0" id="path4431" d="m 430.09375,366.4375 c -10.80193,0.67955 -21.60539,1.33496 -32.40625,2.03125 5.29179,7.06813 12.0474,14.71949 12.5625,23.9375 -1.43838,12.23434 -9.17758,25.73479 -2.21875,37.5625 3.0696,7.95099 13.76761,14.56557 21.28125,8.15625 4.32489,-4.03782 -0.11603,-9.80557 -3.4375,-12.78125 -4.6227,-5.4648 -5.20552,-12.98639 -1.6875,-19.3125 3.31158,-7.44589 4.09072,-15.65218 2.84375,-23.59375 0.3646,-6.13882 3.60202,-11.46543 7.1875,-16.25 -1.375,0.0833 -2.75,0.16667 -4.125,0.25 z" style="fill:#a64a63;fill-opacity:1;stroke:none"/>
        </g>
        <path style="fill:#d8467d;fill-opacity:1;stroke:#232323;stroke-width:2.99999976;stroke-miterlimit:4;stroke-opacity:1;stroke-dasharray:none" d="m 512.5133,-242.55193 c -29.50725,0.15482 -60.18074,13.18376 -76.12793,38.78517 -18.38182,28.11628 -22.24525,65.75505 -9.84054,96.93091 3.5523,8.795429 10.62181,16.378112 19.42464,19.713133 7.43036,6.683787 5.59735,18.646261 4.58371,27.630431 -1.88377,9.411612 -11.63915,18.608087 -21.50815,14.905051 -6.83296,-1.518401 -14.44615,6.633355 -9.55205,12.789493 8.9016,8.920782 24.03124,8.279294 34.07326,1.506532 9.9418,-5.920888 17.99507,-15.867702 18.11044,-27.886867 1.39662,-8.309324 -2.37421,-17.411062 1.34626,-25.194337 4.36927,-5.693395 13.46321,1.256457 10.54572,7.404439 -5.03599,8.593557 -1.7721,18.790143 -0.96669,28.131493 1.52773,11.850443 5.07404,24.143056 3.1784,35.944194 -4.35184,3.7932087 -13.78964,3.2762949 -14.36013,10.4175074 2.23045,10.2797422 16.52238,11.8701486 23.78398,5.897912 8.72562,-5.6822122 12.10991,-17.0880774 9.16741,-26.8931974 -2.69221,-13.758711 -5.26994,-28.252784 -0.74873,-41.846293 1.83066,-6.602548 2.80807,-16.030942 9.88408,-18.991952 8.12515,-0.127975 9.47279,10.017527 11.92404,15.898717 4.50924,13.462556 5.14879,27.914502 1.46644,41.638093 -2.47606,10.594598 -0.80876,23.4287428 8.02151,30.6113322 6.89931,4.0969159 18.44935,4.53847 23.04673,-3.0130629 1.90059,-4.4993685 -1.18954,-10.7714751 -6.41078,-10.0969697 -8.97695,-1.9010246 -8.32981,-13.6082366 -5.96202,-20.3221536 3.10106,-17.972641 5.9295,-36.551918 2.9169,-54.619789 2.25595,-5.709548 9.29179,-1.423241 11.15475,2.468142 2.82767,3.691621 1.82608,8.412531 -0.0641,12.148414 -2.92112,14.125646 2.80534,30.292223 15.93077,37.214546 9.8484,7.811647 26.15131,8.830334 35.35542,-0.320538 3.55008,-4.301383 1.41141,-11.418738 -4.35932,-12.244579 -5.30836,-2.005751 -10.72814,2.46901 -15.6423,-1.153939 -11.11039,-5.860494 -13.65377,-20.156494 -10.60982,-31.380739 0.44996,-11.760281 12.98294,-16.56985 20.93118,-22.758242 14.18257,-17.168641 13.62967,-41.517531 10.41964,-62.423161 -6.23063,-35.05631 -31.5077,-68.17502 -66.89857,-76.7868 -10.44889,-2.85647 -21.33841,-4.29193 -32.21414,-4.10289 z" id="path4419" inkscape:connector-curvature="0"/>
        <path sodipodi:type="arc" style="fill:#fff9e1;fill-opacity:0.47488589;fill-rule:nonzero;stroke:none" id="path6715-4-1" sodipodi:cx="373.125" sodipodi:cy="98.095001" sodipodi:rx="48.125" sodipodi:ry="40.625" d="M 421.25,98.095001 C 421.25,120.53157 399.7037,138.72 373.125,138.72 346.5463,138.72 325,120.53157 325,98.095001 c 0,-22.436568 21.5463,-40.625 48.125,-40.625 26.5787,0 48.125,18.188432 48.125,40.625 z" transform="matrix(1.4009073,0,0,1.4338249,-4.9099121,-310.53529)"/>
        <path sodipodi:type="arc" style="fill:#000000;fill-opacity:1;fill-rule:evenodd;stroke:none" id="path4283-4-8-8-7" sodipodi:cx="52.5" sodipodi:cy="152.5" sodipodi:rx="2.5" sodipodi:ry="2.5" d="m 55,152.5 c 0,1.38071 -1.119288,2.5 -2.5,2.5 -1.380712,0 -2.5,-1.11929 -2.5,-2.5 0,-1.38071 1.119288,-2.5 2.5,-2.5 1.380712,0 2.5,1.11929 2.5,2.5 z" transform="matrix(1.9735089,0,0,2,388.13899,-493.771)"/>
        <path sodipodi:type="arc" style="fill:#000000;fill-opacity:1;fill-rule:evenodd;stroke:none" id="path4283-7-78-8-7-4" sodipodi:cx="52.5" sodipodi:cy="152.5" sodipodi:rx="2.5" sodipodi:ry="2.5" d="m 55,152.5 c 0,1.38071 -1.119288,2.5 -2.5,2.5 -1.380712,0 -2.5,-1.11929 -2.5,-2.5 0,-1.38071 1.119288,-2.5 2.5,-2.5 1.380712,0 2.5,1.11929 2.5,2.5 z" transform="matrix(1.9735089,0,0,2,441.83732,-493.771)"/>
        <path style="fill:#d8467d;fill-opacity:1;fill-rule:nonzero;stroke:#232323;stroke-width:2.99999952;stroke-linecap:round;stroke-linejoin:round;stroke-miterlimit:4;stroke-opacity:1;stroke-dasharray:none;stroke-dashoffset:0" d="m 575.86004,-260.16945 c -5.27754,-3.2577 -12.14902,-1.66725 -15.32161,3.54812 -2.30991,3.79719 -2.0045,8.46101 0.35351,11.9793 l -6.48204,10.65569 7.62649,4.70764 6.3697,-10.47102 c 4.34301,0.74407 8.8495,-1.11655 11.25357,-5.06855 3.1726,-5.21537 1.47791,-12.09349 -3.79962,-15.35118 z" id="rect7017" inkscape:connector-curvature="0"/>
        <path inkscape:connector-curvature="0" id="use7026" d="m 458.23163,-260.37764 c 5.27754,-3.2577 12.14902,-1.66724 15.32161,3.54812 2.3099,3.7972 2.0045,8.46102 -0.35351,11.9793 l 6.48204,10.6557 -7.6265,4.70764 -6.36969,-10.47103 c -4.34301,0.74407 -8.8495,-1.11654 -11.25357,-5.06854 -3.1726,-5.21538 -1.47792,-12.0935 3.79962,-15.35119 z" style="fill:#d8467d;fill-opacity:1;fill-rule:nonzero;stroke:#232323;stroke-width:2.99999952;stroke-linecap:round;stroke-linejoin:round;stroke-miterlimit:4;stroke-opacity:1;stroke-dasharray:none;stroke-dashoffset:0"/>
        <path transform="matrix(0.31513799,0,0,0.67563086,696.40438,227.09156)" style="fill:#b0726d;fill-opacity:1;fill-rule:nonzero;stroke:#232323;stroke-width:6.50153843000000009;stroke-linecap:round;stroke-linejoin:round;stroke-miterlimit:4;stroke-dashoffset:0;stroke-opacity:1;stroke-dasharray:none" d="m -471.25,-592.53003 c 0,17.2589 -41.13384,31.25 -91.875,31.25 -50.74116,0 -91.875,-13.9911 -91.875,-31.25 0,0 0,0 0,0 l 91.875,0 z" id="path7056"/>
    </g>
    <metadata id="metadata35">
        <rdf:RDF>
            <cc:Work>
                <dc:format>image/svg+xml</dc:format>
                <dc:type rdf:resource="http://purl.org/dc/dcmitype/StillImage"/>
                <cc:license rdf:resource="http://creativecommons.org/licenses/publicdomain/"/>
                <dc:publisher>
                    <cc:Agent rdf:about="http://openclipart.org/">
                        <dc:title>Openclipart</dc:title>
                    </cc:Agent>
                </dc:publisher>
                <dc:title/>
            </cc:Work>
            <cc:License rdf:about="http://creativecommons.org/licenses/publicdomain/">
                <cc:permits rdf:resource="http://creativecommons.org/ns#Reproduction"/>
                <cc:permits rdf:resource="http://creativecommons.org/ns#Distribution"/>
                <cc:permits rdf:resource="http://creativecommons.org/ns#DerivativeWorks"/>
            </cc:License>
        </rdf:RDF>
    </metadata>
</svg>